<svg id="visual" viewBox="0 0 900 600" width="900" height="600" xmlns="http://www.w3.org/2000/svg" xmlns:xlink="http://www.w3.org/1999/xlink" version="1.1"><path d="M0 300L129 300L129 260L257 260L257 256L386 256L386 319L514 319L514 249L643 249L643 249L771 249L771 330L900 330L900 239L900 0L900 0L771 0L771 0L643 0L643 0L514 0L514 0L386 0L386 0L257 0L257 0L129 0L129 0L0 0Z" fill="#fde047"></path><path d="M0 214L129 214L129 248L257 248L257 249L386 249L386 208L514 208L514 244L643 244L643 200L771 200L771 183L900 183L900 220L900 0L900 0L771 0L771 0L643 0L643 0L514 0L514 0L386 0L386 0L257 0L257 0L129 0L129 0L0 0Z" fill="#f4c92d"></path><path d="M0 116L129 116L129 148L257 148L257 120L386 120L386 123L514 123L514 137L643 137L643 130L771 130L771 55L900 55L900 67L900 0L900 0L771 0L771 0L643 0L643 0L514 0L514 0L386 0L386 0L257 0L257 0L129 0L129 0L0 0Z" fill="#eab308"></path></svg>