<svg id="visual" viewBox="0 0 960 540" width="960" height="540" xmlns="http://www.w3.org/2000/svg" xmlns:xlink="http://www.w3.org/1999/xlink" version="1.1"><path d="M0 345L22.8 345C45.7 345 91.3 345 137 364.8C182.7 384.7 228.3 424.3 274 438.5C319.7 452.7 365.3 441.3 411.2 433.8C457 426.3 503 422.7 548.8 409.2C594.7 395.7 640.3 372.3 686 363.3C731.7 354.3 777.3 359.7 823 366.3C868.7 373 914.3 381 937.2 385L960 389L960 541L937.2 541C914.3 541 868.7 541 823 541C777.3 541 731.7 541 686 541C640.3 541 594.7 541 548.8 541C503 541 457 541 411.2 541C365.3 541 319.7 541 274 541C228.3 541 182.7 541 137 541C91.3 541 45.7 541 22.8 541L0 541Z" fill="#EAB308" stroke-linecap="round" stroke-linejoin="miter"></path></svg>