<svg id="visual" viewBox="0 0 900 600" width="900" height="600" xmlns="http://www.w3.org/2000/svg" xmlns:xlink="http://www.w3.org/1999/xlink" version="1.1"><path d="M0 170L21.5 158C43 146 86 122 128.8 122.7C171.7 123.3 214.3 148.7 257.2 152.8C300 157 343 140 385.8 128.7C428.7 117.3 471.3 111.7 514.2 113.7C557 115.7 600 125.3 642.8 125.2C685.7 125 728.3 115 771.2 119.7C814 124.3 857 143.7 878.5 153.3L900 163L900 0L878.5 0C857 0 814 0 771.2 0C728.3 0 685.7 0 642.8 0C600 0 557 0 514.2 0C471.3 0 428.7 0 385.8 0C343 0 300 0 257.2 0C214.3 0 171.7 0 128.8 0C86 0 43 0 21.5 0L0 0Z" fill="#000000" stroke-linecap="round" stroke-linejoin="miter"></path></svg>