<svg id="visual" viewBox="0 0 900 600" width="900" height="600" xmlns="http://www.w3.org/2000/svg" xmlns:xlink="http://www.w3.org/1999/xlink" version="1.1"><path d="M0 296L30 298.8C60 301.7 120 307.3 180 291.8C240 276.3 300 239.7 360 220.2C420 200.7 480 198.3 540 210.8C600 223.3 660 250.7 720 258.3C780 266 840 254 870 248L900 242L900 0L870 0C840 0 780 0 720 0C660 0 600 0 540 0C480 0 420 0 360 0C300 0 240 0 180 0C120 0 60 0 30 0L0 0Z" fill="#EAB308" stroke-linecap="round" stroke-linejoin="miter"></path></svg>