<svg id="visual" viewBox="0 0 900 600" width="900" height="600" xmlns="http://www.w3.org/2000/svg" xmlns:xlink="http://www.w3.org/1999/xlink" version="1.1"><path d="M0 198L21.5 186.3C43 174.7 86 151.3 128.8 132.5C171.7 113.7 214.3 99.3 257.2 102.7C300 106 343 127 385.8 128.5C428.7 130 471.3 112 514.2 119.5C557 127 600 160 642.8 171.7C685.7 183.3 728.3 173.7 771.2 158.7C814 143.7 857 123.3 878.5 113.2L900 103L900 0L878.5 0C857 0 814 0 771.2 0C728.3 0 685.7 0 642.8 0C600 0 557 0 514.2 0C471.3 0 428.7 0 385.8 0C343 0 300 0 257.2 0C214.3 0 171.7 0 128.8 0C86 0 43 0 21.5 0L0 0Z" fill="#ffffff" stroke-linecap="round" stroke-linejoin="miter"></path></svg>