<svg id="visual" viewBox="0 0 960 540" width="960" height="540" xmlns="http://www.w3.org/2000/svg" xmlns:xlink="http://www.w3.org/1999/xlink" version="1.1"><path d="M0 311L22.8 300.8C45.7 290.7 91.3 270.3 137 271.3C182.7 272.3 228.3 294.7 274 303.8C319.7 313 365.3 309 411.2 302.3C457 295.7 503 286.3 548.8 278C594.7 269.7 640.3 262.3 686 259C731.7 255.7 777.3 256.3 823 265C868.7 273.7 914.3 290.3 937.2 298.7L960 307L960 0L937.2 0C914.3 0 868.7 0 823 0C777.3 0 731.7 0 686 0C640.3 0 594.7 0 548.8 0C503 0 457 0 411.2 0C365.3 0 319.7 0 274 0C228.3 0 182.7 0 137 0C91.3 0 45.7 0 22.8 0L0 0Z" fill="#facc15"></path><path d="M0 190L22.8 200.5C45.7 211 91.3 232 137 237.2C182.7 242.3 228.3 231.7 274 228.2C319.7 224.7 365.3 228.3 411.2 230.3C457 232.3 503 232.7 548.8 228.3C594.7 224 640.3 215 686 216.2C731.7 217.3 777.3 228.7 823 231.5C868.7 234.3 914.3 228.7 937.2 225.8L960 223L960 0L937.2 0C914.3 0 868.7 0 823 0C777.3 0 731.7 0 686 0C640.3 0 594.7 0 548.8 0C503 0 457 0 411.2 0C365.3 0 319.7 0 274 0C228.3 0 182.7 0 137 0C91.3 0 45.7 0 22.8 0L0 0Z" fill="#f6c512"></path><path d="M0 131L22.8 137.5C45.7 144 91.3 157 137 165.3C182.7 173.7 228.3 177.3 274 181.2C319.7 185 365.3 189 411.2 187.2C457 185.3 503 177.7 548.8 170.5C594.7 163.3 640.3 156.7 686 158.7C731.7 160.7 777.3 171.3 823 173.7C868.7 176 914.3 170 937.2 167L960 164L960 0L937.2 0C914.3 0 868.7 0 823 0C777.3 0 731.7 0 686 0C640.3 0 594.7 0 548.8 0C503 0 457 0 411.2 0C365.3 0 319.7 0 274 0C228.3 0 182.7 0 137 0C91.3 0 45.7 0 22.8 0L0 0Z" fill="#f2bf0f"></path><path d="M0 137L22.8 131C45.7 125 91.3 113 137 114.8C182.7 116.7 228.3 132.3 274 139.8C319.7 147.3 365.3 146.7 411.2 146.5C457 146.3 503 146.7 548.8 141.7C594.7 136.7 640.3 126.3 686 119C731.7 111.7 777.3 107.3 823 107.7C868.7 108 914.3 113 937.2 115.5L960 118L960 0L937.2 0C914.3 0 868.7 0 823 0C777.3 0 731.7 0 686 0C640.3 0 594.7 0 548.8 0C503 0 457 0 411.2 0C365.3 0 319.7 0 274 0C228.3 0 182.7 0 137 0C91.3 0 45.7 0 22.8 0L0 0Z" fill="#eeb90c"></path><path d="M0 51L22.8 55.2C45.7 59.3 91.3 67.7 137 68C182.7 68.3 228.3 60.7 274 62.8C319.7 65 365.3 77 411.2 79C457 81 503 73 548.8 67C594.7 61 640.3 57 686 53C731.7 49 777.3 45 823 42.3C868.7 39.7 914.3 38.3 937.2 37.7L960 37L960 0L937.2 0C914.3 0 868.7 0 823 0C777.3 0 731.7 0 686 0C640.3 0 594.7 0 548.8 0C503 0 457 0 411.2 0C365.3 0 319.7 0 274 0C228.3 0 182.7 0 137 0C91.3 0 45.7 0 22.8 0L0 0Z" fill="#eab308"></path></svg>