<svg id="visual" viewBox="0 0 900 300" width="900" height="300" xmlns="http://www.w3.org/2000/svg" xmlns:xlink="http://www.w3.org/1999/xlink" version="1.1"><path d="M0 514L15 515.8C30 517.7 60 521.3 90 521.5C120 521.7 150 518.3 180 516.8C210 515.3 240 515.7 270 515.5C300 515.3 330 514.7 360 516C390 517.3 420 520.7 450 520.8C480 521 510 518 540 516C570 514 600 513 630 513C660 513 690 514 720 516.3C750 518.7 780 522.3 810 523.8C840 525.3 870 524.7 885 524.3L900 524L900 601L885 601C870 601 840 601 810 601C780 601 750 601 720 601C690 601 660 601 630 601C600 601 570 601 540 601C510 601 480 601 450 601C420 601 390 601 360 601C330 601 300 601 270 601C240 601 210 601 180 601C150 601 120 601 90 601C60 601 30 601 15 601L0 601Z" fill="#fde047"></path><path d="M0 563L15 562.3C30 561.7 60 560.3 90 558.8C120 557.3 150 555.7 180 556.3C210 557 240 560 270 559.8C300 559.7 330 556.3 360 555C390 553.7 420 554.3 450 555.3C480 556.3 510 557.7 540 558.8C570 560 600 561 630 562C660 563 690 564 720 562.8C750 561.7 780 558.3 810 556.3C840 554.3 870 553.7 885 553.3L900 553L900 601L885 601C870 601 840 601 810 601C780 601 750 601 720 601C690 601 660 601 630 601C600 601 570 601 540 601C510 601 480 601 450 601C420 601 390 601 360 601C330 601 300 601 270 601C240 601 210 601 180 601C150 601 120 601 90 601C60 601 30 601 15 601L0 601Z" fill="#eab308"></path></svg>