<svg id="visual" viewBox="0 0 900 600" width="900" height="600" xmlns="http://www.w3.org/2000/svg" xmlns:xlink="http://www.w3.org/1999/xlink" version="1.1"><path d="M0 313L21.5 313C43 313 86 313 128.8 312.8C171.7 312.7 214.3 312.3 257.2 307.5C300 302.7 343 293.3 385.8 283.2C428.7 273 471.3 262 514.2 259.7C557 257.3 600 263.7 642.8 264.5C685.7 265.3 728.3 260.7 771.2 246.5C814 232.3 857 208.7 878.5 196.8L900 185L900 0L878.5 0C857 0 814 0 771.2 0C728.3 0 685.7 0 642.8 0C600 0 557 0 514.2 0C471.3 0 428.7 0 385.8 0C343 0 300 0 257.2 0C214.3 0 171.7 0 128.8 0C86 0 43 0 21.5 0L0 0Z" fill="#fde047"></path><path d="M0 170L21.5 171.7C43 173.3 86 176.7 128.8 176.7C171.7 176.7 214.3 173.3 257.2 177.7C300 182 343 194 385.8 187.2C428.7 180.3 471.3 154.7 514.2 148.5C557 142.3 600 155.7 642.8 170.3C685.7 185 728.3 201 771.2 198.2C814 195.3 857 173.7 878.5 162.8L900 152L900 0L878.5 0C857 0 814 0 771.2 0C728.3 0 685.7 0 642.8 0C600 0 557 0 514.2 0C471.3 0 428.7 0 385.8 0C343 0 300 0 257.2 0C214.3 0 171.7 0 128.8 0C86 0 43 0 21.5 0L0 0Z" fill="#f4c92d"></path><path d="M0 138L21.5 131.3C43 124.7 86 111.3 128.8 113.5C171.7 115.7 214.3 133.3 257.2 128.5C300 123.7 343 96.3 385.8 91.3C428.7 86.3 471.3 103.7 514.2 115.8C557 128 600 135 642.8 127.3C685.7 119.7 728.3 97.3 771.2 94C814 90.7 857 106.3 878.5 114.2L900 122L900 0L878.5 0C857 0 814 0 771.2 0C728.3 0 685.7 0 642.8 0C600 0 557 0 514.2 0C471.3 0 428.7 0 385.8 0C343 0 300 0 257.2 0C214.3 0 171.7 0 128.8 0C86 0 43 0 21.5 0L0 0Z" fill="#eab308"></path></svg>