<svg id="visual" viewBox="0 0 900 600" width="900" height="600" xmlns="http://www.w3.org/2000/svg" xmlns:xlink="http://www.w3.org/1999/xlink" version="1.1"><path d="M0 165L21.5 168.2C43 171.3 86 177.7 128.8 183.7C171.7 189.7 214.3 195.3 257.2 178.7C300 162 343 123 385.8 102.3C428.7 81.7 471.3 79.3 514.2 93.2C557 107 600 137 642.8 150C685.7 163 728.3 159 771.2 147.3C814 135.7 857 116.3 878.5 106.7L900 97L900 0L878.5 0C857 0 814 0 771.2 0C728.3 0 685.7 0 642.8 0C600 0 557 0 514.2 0C471.3 0 428.7 0 385.8 0C343 0 300 0 257.2 0C214.3 0 171.7 0 128.8 0C86 0 43 0 21.5 0L0 0Z" fill="#EAB308" stroke-linecap="round" stroke-linejoin="miter"></path></svg>