<?xml version="1.0" standalone="no"?>
<svg xmlns:xlink="http://www.w3.org/1999/xlink" id="wave" style="transform:rotate(0deg); transition: 0.3s" viewBox="0 0 1440 490" version="1.1" xmlns="http://www.w3.org/2000/svg"><defs><linearGradient id="sw-gradient-0" x1="0" x2="0" y1="1" y2="0"><stop stop-color="rgba(234, 179, 8, 1)" offset="0%"/><stop stop-color="rgba(234, 179, 8, 1)" offset="100%"/></linearGradient></defs><path style="transform:translate(0, 0px); opacity:1" fill="url(#sw-gradient-0)" d="M0,441L120,408.3C240,376,480,310,720,236.8C960,163,1200,82,1440,73.5C1680,65,1920,131,2160,163.3C2400,196,2640,196,2880,187.8C3120,180,3360,163,3600,179.7C3840,196,4080,245,4320,220.5C4560,196,4800,98,5040,57.2C5280,16,5520,33,5760,65.3C6000,98,6240,147,6480,212.3C6720,278,6960,359,7200,334.8C7440,310,7680,180,7920,163.3C8160,147,8400,245,8640,310.3C8880,376,9120,408,9360,383.8C9600,359,9840,278,10080,228.7C10320,180,10560,163,10800,138.8C11040,114,11280,82,11520,106.2C11760,131,12000,212,12240,245C12480,278,12720,261,12960,269.5C13200,278,13440,310,13680,318.5C13920,327,14160,310,14400,277.7C14640,245,14880,196,15120,220.5C15360,245,15600,343,15840,359.3C16080,376,16320,310,16560,302.2C16800,294,17040,343,17160,367.5L17280,392L17280,490L17160,490C17040,490,16800,490,16560,490C16320,490,16080,490,15840,490C15600,490,15360,490,15120,490C14880,490,14640,490,14400,490C14160,490,13920,490,13680,490C13440,490,13200,490,12960,490C12720,490,12480,490,12240,490C12000,490,11760,490,11520,490C11280,490,11040,490,10800,490C10560,490,10320,490,10080,490C9840,490,9600,490,9360,490C9120,490,8880,490,8640,490C8400,490,8160,490,7920,490C7680,490,7440,490,7200,490C6960,490,6720,490,6480,490C6240,490,6000,490,5760,490C5520,490,5280,490,5040,490C4800,490,4560,490,4320,490C4080,490,3840,490,3600,490C3360,490,3120,490,2880,490C2640,490,2400,490,2160,490C1920,490,1680,490,1440,490C1200,490,960,490,720,490C480,490,240,490,120,490L0,490Z"/></svg>